<mxfile host="app.diagrams.net" modified="2023-12-03T23:17:50.370Z" agent="Mozilla/5.0 (Windows NT 10.0; Win64; x64) AppleWebKit/537.36 (KHTML, like Gecko) Chrome/119.0.0.0 Safari/537.36" etag="8db97THPvIoXH9I0zufs" version="22.1.5" type="device">
  <diagram id="C5RBs43oDa-KdzZeNtuy" name="Page-1">
    <mxGraphModel dx="1134" dy="626" grid="1" gridSize="10" guides="1" tooltips="1" connect="1" arrows="1" fold="1" page="1" pageScale="1" pageWidth="827" pageHeight="1169" math="0" shadow="0">
      <root>
        <mxCell id="WIyWlLk6GJQsqaUBKTNV-0" />
        <mxCell id="WIyWlLk6GJQsqaUBKTNV-1" parent="WIyWlLk6GJQsqaUBKTNV-0" />
        <mxCell id="h-NhRY0XOj9QEPLzQhCD-0" value="" style="swimlane;startSize=0;" vertex="1" parent="WIyWlLk6GJQsqaUBKTNV-1">
          <mxGeometry x="40" y="400" width="240" height="270" as="geometry" />
        </mxCell>
        <mxCell id="h-NhRY0XOj9QEPLzQhCD-9" value="&lt;p style=&quot;margin:0px;margin-top:4px;text-align:center;&quot;&gt;&lt;i&gt;&amp;lt;&amp;lt;Interface&amp;gt;&amp;gt;&lt;/i&gt;&lt;br&gt;&lt;b&gt;Drop_name&lt;/b&gt;&lt;/p&gt;&lt;p style=&quot;margin:0px;margin-left:4px;&quot;&gt;&lt;br&gt;&lt;/p&gt;" style="verticalAlign=top;align=left;overflow=fill;fontSize=12;fontFamily=Helvetica;html=1;whiteSpace=wrap;" vertex="1" parent="h-NhRY0XOj9QEPLzQhCD-0">
          <mxGeometry x="20" y="10" width="190" height="80" as="geometry" />
        </mxCell>
        <mxCell id="h-NhRY0XOj9QEPLzQhCD-10" value="&lt;p style=&quot;margin:0px;margin-top:4px;text-align:center;&quot;&gt;&lt;i&gt;&amp;lt;&amp;lt;Interface&amp;gt;&amp;gt;&lt;/i&gt;&lt;br&gt;&lt;b&gt;Property&lt;/b&gt;&lt;/p&gt;&lt;p style=&quot;margin:0px;margin-left:4px;&quot;&gt;&lt;br&gt;&lt;/p&gt;&lt;p style=&quot;margin:0px;margin-left:4px;&quot;&gt;&lt;br&gt;&lt;/p&gt;" style="verticalAlign=top;align=left;overflow=fill;fontSize=12;fontFamily=Helvetica;html=1;whiteSpace=wrap;" vertex="1" parent="h-NhRY0XOj9QEPLzQhCD-0">
          <mxGeometry x="20" y="100" width="190" height="80" as="geometry" />
        </mxCell>
        <mxCell id="h-NhRY0XOj9QEPLzQhCD-11" value="&lt;p style=&quot;margin:0px;margin-top:4px;text-align:center;&quot;&gt;&lt;i&gt;&amp;lt;&amp;lt;Interface&amp;gt;&amp;gt;&lt;/i&gt;&lt;br&gt;&lt;/p&gt;&lt;p style=&quot;margin:0px;margin-top:4px;text-align:center;&quot;&gt;&lt;b&gt;Use&lt;/b&gt;&lt;/p&gt;&lt;p style=&quot;margin:0px;margin-left:4px;&quot;&gt;&lt;br&gt;&lt;/p&gt;" style="verticalAlign=top;align=left;overflow=fill;fontSize=12;fontFamily=Helvetica;html=1;whiteSpace=wrap;" vertex="1" parent="h-NhRY0XOj9QEPLzQhCD-0">
          <mxGeometry x="20" y="190" width="190" height="70" as="geometry" />
        </mxCell>
        <mxCell id="h-NhRY0XOj9QEPLzQhCD-7" value="interfaces" style="shape=folder;fontStyle=1;spacingTop=10;tabWidth=40;tabHeight=14;tabPosition=left;html=1;whiteSpace=wrap;" vertex="1" parent="WIyWlLk6GJQsqaUBKTNV-1">
          <mxGeometry x="40" y="350" width="70" height="50" as="geometry" />
        </mxCell>
        <mxCell id="h-NhRY0XOj9QEPLzQhCD-12" value="" style="swimlane;startSize=0;" vertex="1" parent="WIyWlLk6GJQsqaUBKTNV-1">
          <mxGeometry x="290" y="400" width="270" height="420" as="geometry" />
        </mxCell>
        <mxCell id="h-NhRY0XOj9QEPLzQhCD-31" style="edgeStyle=orthogonalEdgeStyle;rounded=0;orthogonalLoop=1;jettySize=auto;html=1;exitX=1;exitY=0.25;exitDx=0;exitDy=0;entryX=1;entryY=0.5;entryDx=0;entryDy=0;endArrow=block;endFill=0;" edge="1" parent="h-NhRY0XOj9QEPLzQhCD-12" source="h-NhRY0XOj9QEPLzQhCD-17" target="h-NhRY0XOj9QEPLzQhCD-22">
          <mxGeometry relative="1" as="geometry">
            <Array as="points">
              <mxPoint x="240" y="53" />
              <mxPoint x="260" y="53" />
              <mxPoint x="260" y="260" />
            </Array>
          </mxGeometry>
        </mxCell>
        <mxCell id="h-NhRY0XOj9QEPLzQhCD-17" value="Entity" style="swimlane;fontStyle=1;align=center;verticalAlign=top;childLayout=stackLayout;horizontal=1;startSize=26;horizontalStack=0;resizeParent=1;resizeParentMax=0;resizeLast=0;collapsible=1;marginBottom=0;whiteSpace=wrap;html=1;" vertex="1" parent="h-NhRY0XOj9QEPLzQhCD-12">
          <mxGeometry x="40" y="10" width="200" height="200" as="geometry" />
        </mxCell>
        <mxCell id="h-NhRY0XOj9QEPLzQhCD-18" value="- name: String&lt;br&gt;- name_reserved: String" style="text;strokeColor=none;fillColor=none;align=left;verticalAlign=top;spacingLeft=4;spacingRight=4;overflow=hidden;rotatable=0;points=[[0,0.5],[1,0.5]];portConstraint=eastwest;whiteSpace=wrap;html=1;" vertex="1" parent="h-NhRY0XOj9QEPLzQhCD-17">
          <mxGeometry y="26" width="200" height="34" as="geometry" />
        </mxCell>
        <mxCell id="h-NhRY0XOj9QEPLzQhCD-19" value="" style="line;strokeWidth=1;fillColor=none;align=left;verticalAlign=middle;spacingTop=-1;spacingLeft=3;spacingRight=3;rotatable=0;labelPosition=right;points=[];portConstraint=eastwest;strokeColor=inherit;" vertex="1" parent="h-NhRY0XOj9QEPLzQhCD-17">
          <mxGeometry y="60" width="200" height="8" as="geometry" />
        </mxCell>
        <mxCell id="h-NhRY0XOj9QEPLzQhCD-20" value="+ equals(o:Object): boolean&lt;br&gt;+ toString(): String&lt;br&gt;+ hashCode(): int&lt;br&gt;+ dosmth(act: Action, end:int): void&lt;br&gt;+ dosmth(act: Action, o: Obj): void&lt;br&gt;+ propertyes(property: String): void&lt;br&gt;+ uses(o: Object): void&lt;br&gt;+ drop(o: Object): void" style="text;strokeColor=none;fillColor=none;align=left;verticalAlign=top;spacingLeft=4;spacingRight=4;overflow=hidden;rotatable=0;points=[[0,0.5],[1,0.5]];portConstraint=eastwest;whiteSpace=wrap;html=1;" vertex="1" parent="h-NhRY0XOj9QEPLzQhCD-17">
          <mxGeometry y="68" width="200" height="132" as="geometry" />
        </mxCell>
        <mxCell id="h-NhRY0XOj9QEPLzQhCD-21" value="&lt;i&gt;Obj&lt;/i&gt;" style="swimlane;fontStyle=1;align=center;verticalAlign=top;childLayout=stackLayout;horizontal=1;startSize=26;horizontalStack=0;resizeParent=1;resizeParentMax=0;resizeLast=0;collapsible=1;marginBottom=0;whiteSpace=wrap;html=1;" vertex="1" parent="h-NhRY0XOj9QEPLzQhCD-12">
          <mxGeometry x="55" y="220" width="160" height="86" as="geometry" />
        </mxCell>
        <mxCell id="h-NhRY0XOj9QEPLzQhCD-22" value="#name: String" style="text;strokeColor=none;fillColor=none;align=left;verticalAlign=top;spacingLeft=4;spacingRight=4;overflow=hidden;rotatable=0;points=[[0,0.5],[1,0.5]];portConstraint=eastwest;whiteSpace=wrap;html=1;" vertex="1" parent="h-NhRY0XOj9QEPLzQhCD-21">
          <mxGeometry y="26" width="160" height="26" as="geometry" />
        </mxCell>
        <mxCell id="h-NhRY0XOj9QEPLzQhCD-23" value="" style="line;strokeWidth=1;fillColor=none;align=left;verticalAlign=middle;spacingTop=-1;spacingLeft=3;spacingRight=3;rotatable=0;labelPosition=right;points=[];portConstraint=eastwest;strokeColor=inherit;" vertex="1" parent="h-NhRY0XOj9QEPLzQhCD-21">
          <mxGeometry y="52" width="160" height="8" as="geometry" />
        </mxCell>
        <mxCell id="h-NhRY0XOj9QEPLzQhCD-24" value="+ obj(name: String)" style="text;strokeColor=none;fillColor=none;align=left;verticalAlign=top;spacingLeft=4;spacingRight=4;overflow=hidden;rotatable=0;points=[[0,0.5],[1,0.5]];portConstraint=eastwest;whiteSpace=wrap;html=1;" vertex="1" parent="h-NhRY0XOj9QEPLzQhCD-21">
          <mxGeometry y="60" width="160" height="26" as="geometry" />
        </mxCell>
        <mxCell id="h-NhRY0XOj9QEPLzQhCD-25" value="Thing" style="swimlane;fontStyle=1;align=center;verticalAlign=top;childLayout=stackLayout;horizontal=1;startSize=26;horizontalStack=0;resizeParent=1;resizeParentMax=0;resizeLast=0;collapsible=1;marginBottom=0;whiteSpace=wrap;html=1;" vertex="1" parent="h-NhRY0XOj9QEPLzQhCD-12">
          <mxGeometry x="55" y="320" width="160" height="86" as="geometry" />
        </mxCell>
        <mxCell id="h-NhRY0XOj9QEPLzQhCD-26" value="+ field: type" style="text;strokeColor=none;fillColor=none;align=left;verticalAlign=top;spacingLeft=4;spacingRight=4;overflow=hidden;rotatable=0;points=[[0,0.5],[1,0.5]];portConstraint=eastwest;whiteSpace=wrap;html=1;" vertex="1" parent="h-NhRY0XOj9QEPLzQhCD-25">
          <mxGeometry y="26" width="160" height="26" as="geometry" />
        </mxCell>
        <mxCell id="h-NhRY0XOj9QEPLzQhCD-27" value="" style="line;strokeWidth=1;fillColor=none;align=left;verticalAlign=middle;spacingTop=-1;spacingLeft=3;spacingRight=3;rotatable=0;labelPosition=right;points=[];portConstraint=eastwest;strokeColor=inherit;" vertex="1" parent="h-NhRY0XOj9QEPLzQhCD-25">
          <mxGeometry y="52" width="160" height="8" as="geometry" />
        </mxCell>
        <mxCell id="h-NhRY0XOj9QEPLzQhCD-28" value="+ method(type): type" style="text;strokeColor=none;fillColor=none;align=left;verticalAlign=top;spacingLeft=4;spacingRight=4;overflow=hidden;rotatable=0;points=[[0,0.5],[1,0.5]];portConstraint=eastwest;whiteSpace=wrap;html=1;" vertex="1" parent="h-NhRY0XOj9QEPLzQhCD-25">
          <mxGeometry y="60" width="160" height="26" as="geometry" />
        </mxCell>
        <mxCell id="h-NhRY0XOj9QEPLzQhCD-30" style="edgeStyle=orthogonalEdgeStyle;rounded=0;orthogonalLoop=1;jettySize=auto;html=1;exitX=1;exitY=0.5;exitDx=0;exitDy=0;entryX=1;entryY=0.5;entryDx=0;entryDy=0;endArrow=block;endFill=0;" edge="1" parent="h-NhRY0XOj9QEPLzQhCD-12" source="h-NhRY0XOj9QEPLzQhCD-26" target="h-NhRY0XOj9QEPLzQhCD-22">
          <mxGeometry relative="1" as="geometry">
            <Array as="points">
              <mxPoint x="200" y="390" />
              <mxPoint x="260" y="390" />
              <mxPoint x="260" y="300" />
            </Array>
          </mxGeometry>
        </mxCell>
        <mxCell id="h-NhRY0XOj9QEPLzQhCD-16" value="Objects" style="shape=folder;fontStyle=1;spacingTop=10;tabWidth=40;tabHeight=14;tabPosition=left;html=1;whiteSpace=wrap;" vertex="1" parent="WIyWlLk6GJQsqaUBKTNV-1">
          <mxGeometry x="290" y="350" width="70" height="50" as="geometry" />
        </mxCell>
        <mxCell id="h-NhRY0XOj9QEPLzQhCD-33" style="edgeStyle=orthogonalEdgeStyle;rounded=0;orthogonalLoop=1;jettySize=auto;html=1;exitX=0;exitY=0.25;exitDx=0;exitDy=0;entryX=1;entryY=0.5;entryDx=0;entryDy=0;dashed=1;" edge="1" parent="WIyWlLk6GJQsqaUBKTNV-1" source="h-NhRY0XOj9QEPLzQhCD-17" target="h-NhRY0XOj9QEPLzQhCD-9">
          <mxGeometry relative="1" as="geometry">
            <Array as="points">
              <mxPoint x="300" y="432" />
              <mxPoint x="300" y="450" />
            </Array>
          </mxGeometry>
        </mxCell>
        <mxCell id="h-NhRY0XOj9QEPLzQhCD-34" style="edgeStyle=orthogonalEdgeStyle;rounded=0;orthogonalLoop=1;jettySize=auto;html=1;exitX=0;exitY=0.25;exitDx=0;exitDy=0;entryX=1;entryY=0.5;entryDx=0;entryDy=0;dashed=1;" edge="1" parent="WIyWlLk6GJQsqaUBKTNV-1" source="h-NhRY0XOj9QEPLzQhCD-17" target="h-NhRY0XOj9QEPLzQhCD-10">
          <mxGeometry relative="1" as="geometry">
            <Array as="points">
              <mxPoint x="300" y="432" />
              <mxPoint x="300" y="540" />
            </Array>
          </mxGeometry>
        </mxCell>
        <mxCell id="h-NhRY0XOj9QEPLzQhCD-35" style="edgeStyle=orthogonalEdgeStyle;rounded=0;orthogonalLoop=1;jettySize=auto;html=1;exitX=0;exitY=0.25;exitDx=0;exitDy=0;entryX=1;entryY=0.5;entryDx=0;entryDy=0;dashed=1;" edge="1" parent="WIyWlLk6GJQsqaUBKTNV-1" source="h-NhRY0XOj9QEPLzQhCD-17" target="h-NhRY0XOj9QEPLzQhCD-11">
          <mxGeometry relative="1" as="geometry">
            <Array as="points">
              <mxPoint x="300" y="432" />
              <mxPoint x="300" y="625" />
            </Array>
          </mxGeometry>
        </mxCell>
        <mxCell id="h-NhRY0XOj9QEPLzQhCD-38" value="&lt;p style=&quot;margin:0px;margin-top:4px;text-align:center;&quot;&gt;&lt;i&gt;&amp;lt;&amp;lt;Interface&amp;gt;&amp;gt;&lt;/i&gt;&lt;br&gt;&lt;b&gt;Interface&lt;/b&gt;&lt;/p&gt;&lt;hr size=&quot;1&quot;&gt;&lt;p style=&quot;margin:0px;margin-left:4px;&quot;&gt;Bored&lt;/p&gt;&lt;p style=&quot;margin:0px;margin-left:4px;&quot;&gt;Jumping&lt;/p&gt;&lt;p style=&quot;margin:0px;margin-left:4px;&quot;&gt;splapping_the_floor&lt;/p&gt;&lt;p style=&quot;margin:0px;margin-left:4px;&quot;&gt;without_boots&lt;/p&gt;&lt;p style=&quot;margin:0px;margin-left:4px;&quot;&gt;will_not_surrender&lt;/p&gt;&lt;p style=&quot;margin:0px;margin-left:4px;&quot;&gt;strike&lt;/p&gt;&lt;p style=&quot;margin:0px;margin-left:4px;&quot;&gt;laugh&lt;/p&gt;&lt;p style=&quot;margin:0px;margin-left:4px;&quot;&gt;pull_up&lt;/p&gt;&lt;p style=&quot;margin:0px;margin-left:4px;&quot;&gt;stomach_ache&lt;/p&gt;&lt;p style=&quot;margin:0px;margin-left:4px;&quot;&gt;to_room&lt;/p&gt;&lt;p style=&quot;margin:0px;margin-left:4px;&quot;&gt;to_bed&lt;/p&gt;&lt;p style=&quot;margin:0px;margin-left:4px;&quot;&gt;rest&lt;/p&gt;&lt;p style=&quot;margin:0px;margin-left:4px;&quot;&gt;laugh_hard&lt;/p&gt;&lt;p style=&quot;margin:0px;margin-left:4px;&quot;&gt;by_the_wall&lt;/p&gt;&lt;p style=&quot;margin:0px;margin-left:4px;&quot;&gt;try_to_catch&lt;/p&gt;&lt;p style=&quot;margin:0px;margin-left:4px;&quot;&gt;&lt;br&gt;&lt;/p&gt;" style="verticalAlign=top;align=left;overflow=fill;fontSize=12;fontFamily=Helvetica;html=1;whiteSpace=wrap;" vertex="1" parent="WIyWlLk6GJQsqaUBKTNV-1">
          <mxGeometry x="600" y="410" width="190" height="270" as="geometry" />
        </mxCell>
        <mxCell id="h-NhRY0XOj9QEPLzQhCD-39" value="" style="swimlane;startSize=0;" vertex="1" parent="WIyWlLk6GJQsqaUBKTNV-1">
          <mxGeometry x="580" y="400" width="230" height="300" as="geometry" />
        </mxCell>
        <mxCell id="h-NhRY0XOj9QEPLzQhCD-55" value="Enums" style="shape=folder;fontStyle=1;spacingTop=10;tabWidth=40;tabHeight=14;tabPosition=left;html=1;whiteSpace=wrap;" vertex="1" parent="WIyWlLk6GJQsqaUBKTNV-1">
          <mxGeometry x="580" y="350" width="70" height="50" as="geometry" />
        </mxCell>
        <mxCell id="h-NhRY0XOj9QEPLzQhCD-64" style="edgeStyle=orthogonalEdgeStyle;rounded=0;orthogonalLoop=1;jettySize=auto;html=1;exitX=0;exitY=0;exitDx=0;exitDy=0;entryX=1;entryY=0.05;entryDx=0;entryDy=0;entryPerimeter=0;endArrow=none;endFill=0;strokeWidth=2;" edge="1" parent="WIyWlLk6GJQsqaUBKTNV-1" source="h-NhRY0XOj9QEPLzQhCD-38" target="h-NhRY0XOj9QEPLzQhCD-17">
          <mxGeometry relative="1" as="geometry">
            <Array as="points">
              <mxPoint x="600" y="420" />
            </Array>
          </mxGeometry>
        </mxCell>
        <mxCell id="h-NhRY0XOj9QEPLzQhCD-65" value="Main" style="swimlane;fontStyle=0;childLayout=stackLayout;horizontal=1;startSize=26;fillColor=none;horizontalStack=0;resizeParent=1;resizeParentMax=0;resizeLast=0;collapsible=1;marginBottom=0;whiteSpace=wrap;html=1;" vertex="1" parent="WIyWlLk6GJQsqaUBKTNV-1">
          <mxGeometry x="370" y="210" width="140" height="52" as="geometry" />
        </mxCell>
        <mxCell id="h-NhRY0XOj9QEPLzQhCD-66" value="+ main(): void" style="text;strokeColor=none;fillColor=none;align=left;verticalAlign=top;spacingLeft=4;spacingRight=4;overflow=hidden;rotatable=0;points=[[0,0.5],[1,0.5]];portConstraint=eastwest;whiteSpace=wrap;html=1;" vertex="1" parent="h-NhRY0XOj9QEPLzQhCD-65">
          <mxGeometry y="26" width="140" height="26" as="geometry" />
        </mxCell>
      </root>
    </mxGraphModel>
  </diagram>
</mxfile>
